<svg width="20" height="20" viewBox="0 0 20 20" fill="none" xmlns="http://www.w3.org/2000/svg">
<path fill-rule="evenodd" clip-rule="evenodd" d="M10 20C10.5021 20 10.9091 19.593 10.9091 19.0909V10.9091H19.0909C19.593 10.9091 20 10.5021 20 10C20 9.49792 19.593 9.09091 19.0909 9.09091H10.9091V0.90909C10.9091 0.407013 10.5021 0 10 0C9.49792 0 9.09091 0.407013 9.09091 0.90909V9.09091H0.909091C0.407014 9.09091 0 9.49792 0 10C0 10.5021 0.407014 10.9091 0.909091 10.9091H9.09091V19.0909C9.09091 19.593 9.49792 20 10 20Z" fill="#404040"/>
</svg>
